Coordinates
version=1
nRows=8
nColumns=33
inDegrees=yes

Units are S.I. units (second, meters, Newtons, ...)
Angles are in degrees.

endheader
time	ground_thorax_rot_x	ground_thorax_rot_y	ground_thorax_rot_z	ground_thorax_tx	ground_thorax_ty	ground_thorax_tz	clav_prot_r	clav_elev_r	scapula_abduction_r	scapula_elevation_r	scapula_upward_rot_r	scapula_winging_r	shoulder_elv_r	plane_of_elev_r	axial_rot_r	elbow_flexion_r	pro_sup_r	wrist_flex_r	wrist_dev_r	clav_prot_l	clav_elev_l	scapula_abduction_l	scapula_elevation_l	scapula_upward_rot_l	scapula_winging_l	shoulder_elv_l	plane_of_elev_l	axial_rot_l	elbow_flexion_l	pro_sup_l	wrist_flex_l	wrist_dev_l
      5.81000000	    -39.85114715	     -8.49881537	     10.95320302	   -110.82798467	    777.31624324	      8.49897188	      2.76592767	    -45.00000000	     45.00000000	    -45.00000000	     -9.36596386	   2421.80779648	  -2817.66008646	     28.84661636	     68.99858495	    369.94160165	     14.00411872	     17.20221009	     12.79395721	     19.03146905	     40.42162263	    -43.91571528	    -42.58185754	    -35.60217218	   -640.77300771	   1701.14527645	    134.08394747	    175.99528054	    727.92294697	     20.55368586	      9.50541830	    -18.24597445
      5.82000000	    -39.74866260	     -8.09299953	     10.56586071	   -107.08868246	    775.61582682	      8.65411032	      2.60759574	    -45.00000000	     45.00000000	    -45.00000000	     -8.19706862	   2421.89413973	  -2817.88568596	     28.71150659	     69.57476897	    369.80940929	     15.19028174	     17.17417584	     12.64389035	     19.18717331	     40.13366070	    -44.44512062	    -41.94092043	    -34.74630362	   -640.55286986	   1700.82432216	    134.33707349	    174.78986351	    727.81507571	     21.46209191	      9.33677381	    -18.22907736
      5.83000000	    -39.60863583	     -7.99829133	     10.57363736	   -103.46278438	    774.11381645	      8.82221520	      2.41721507	    -45.00000000	     45.00000000	    -45.00000000	     -7.82672974	   2422.13128156	  -2817.92527981	     28.53320635	     69.35180471	    369.68169706	     16.17107851	     17.14082998	     12.60617717	     20.10072041	     39.57853065	    -44.96512435	    -41.42925345	    -34.46490475	   -640.63706306	   1700.62179711	    134.82145980	    173.80892328	    727.80277725	     22.20836767	      9.14304973	    -18.24194383
      5.84000000	    -39.43150067	     -7.77983755	     10.15748197	    -99.96771035	    772.81605809	      9.00099696	      2.16483491	    -45.00000000	     45.00000000	    -45.00000000	     -7.08837009	   2422.49167882	  -2818.04154497	     28.47076477	     69.85534644	    369.52033216	     17.44683958	     17.11460166	     12.36443240	     19.81132436	     39.52404636	    -45.00000000	    -40.88149431	    -33.44637162	   -640.58649440	   1700.40734005	    134.95465408	    172.90881731	    727.65838778	     23.02443508	      9.04561485	    -18.22112950
      5.85000000	    -39.25689563	     -7.89174314	     10.16356677	    -96.61712974	    771.72085845	      9.18874494	      2.05559690	    -45.00000000	     45.00000000	    -45.00000000	     -6.80430130	   2422.80537391	  -2818.06986542	     28.33632447	     70.03372833	    369.48320986	     18.66308699	     17.13333082	     12.15783829	     19.78130597	     39.16192235	    -45.00000000	    -40.43998051	    -32.87302713	   -640.50166348	   1700.14885558	    135.05929532	    172.02164583	    727.43458958	     23.79559078	      8.88642181	    -18.17829000
      5.86000000	    -39.02067938	     -9.06303257	     11.47335939	    -93.44223561	    770.82483091	      9.38387403	      3.01459308	    -45.00000000	     45.00000000	    -45.00000000	     -8.89910107	   2422.56924770	  -2818.54438286	     28.84635155	     70.32565100	    369.26660092	     19.57475909	     17.01903734	     11.62940798	     18.34036751	     39.20713285	    -45.00000000	    -40.22906531	    -34.39083684	   -640.16415111	   1700.26741557	    134.76246191	    171.04137470	    727.32580785	     24.39716751	      8.71695938	    -18.09154860
      5.87000000	    -38.99607227	     -8.40263142	     10.51620576	    -90.44943835	    770.10943207	      9.58526870	      2.52173203	    -45.00000000	     45.00000000	    -45.00000000	     -7.43737955	   2422.99554541	  -2818.48949976	     28.68067011	     70.15299263	    369.39293675	     20.78307205	     17.09449357	     11.64057826	     19.05332199	     38.78880147	    -45.00000000	    -39.92494000	    -32.98868281	   -640.08636557	   1700.03945257	    134.55566871	    170.63128525	    727.28033833	     25.05425531	      8.59311357	    -18.09135949
      5.88000000	    -38.81209940	     -8.13451598	     10.10377960	    -87.66883906	    769.55867689	      9.79030533	      2.25739448	    -45.00000000	     45.00000000	    -45.00000000	     -6.70941311	   2423.28422325	  -2818.49019754	     28.65598010	     70.05463342	    369.29241182	     22.14860147	     17.08564146	     11.47457214	     19.02247307	     38.62739095	    -45.00000000	    -39.57799515	    -32.09531865	   -640.22256798	   1699.87487032	    134.67334590	    170.16693375	    727.18565142	     25.80115710	      8.50202211	    -18.10010095
